<svg viewBox="0 0 400 500" xmlns="http://www.w3.org/2000/svg">
  <!-- Tree layers from top to bottom -->
  <!-- Top layer -->
  <polygon points="200,50 160,140 240,140" fill="#0d5016" stroke="#0a3d12" stroke-width="2"/>
  
  <!-- Second layer -->
  <polygon points="200,80 150,170 250,170" fill="#0f5c1a" stroke="#0a3d12" stroke-width="2"/>
  
  <!-- Third layer -->
  <polygon points="200,120 140,210 260,210" fill="#0d5016" stroke="#0a3d12" stroke-width="2"/>
  
  <!-- Fourth layer -->
  <polygon points="200,160 130,250 270,250" fill="#0f5c1a" stroke="#0a3d12" stroke-width="2"/>
  
  <!-- Bottom layer -->
  <polygon points="200,200 120,290 280,290" fill="#0d5016" stroke="#0a3d12" stroke-width="2"/>
  
  <!-- Tree trunk -->
  <rect x="185" y="290" width="30" height="60" fill="#8b4513" stroke="#654321" stroke-width="2"/>
  
  <!-- Star on top -->
  <polygon points="200,30 205,45 220,45 208,55 213,70 200,60 187,70 192,55 180,45 195,45" fill="#ffd700" stroke="#ffb300" stroke-width="1"/>
  
  <!-- Ornaments -->
  <!-- Red ornaments -->
  <circle cx="180" cy="120" r="8" fill="#dc143c" stroke="#8b0000" stroke-width="1"/>
  <circle cx="220" cy="150" r="8" fill="#dc143c" stroke="#8b0000" stroke-width="1"/>
  <circle cx="160" cy="200" r="8" fill="#dc143c" stroke="#8b0000" stroke-width="1"/>
  <circle cx="240" cy="220" r="8" fill="#dc143c" stroke="#8b0000" stroke-width="1"/>
  
  <!-- Blue ornaments -->
  <circle cx="200" cy="180" r="8" fill="#4169e1" stroke="#191970" stroke-width="1"/>
  <circle cx="170" cy="250" r="8" fill="#4169e1" stroke="#191970" stroke-width="1"/>
  <circle cx="230" cy="270" r="8" fill="#4169e1" stroke="#191970" stroke-width="1"/>
  
  <!-- Gold ornaments -->
  <circle cx="210" cy="110" r="8" fill="#ffd700" stroke="#daa520" stroke-width="1"/>
  <circle cx="150" cy="170" r="8" fill="#ffd700" stroke="#daa520" stroke-width="1"/>
  <circle cx="250" cy="190" r="8" fill="#ffd700" stroke="#daa520" stroke-width="1"/>
  <circle cx="200" cy="240" r="8" fill="#ffd700" stroke="#daa520" stroke-width="1"/>
  
  <!-- String lights -->
  <polyline points="160,140 180,130 200,135 220,125 240,140" stroke="#ffff00" stroke-width="3" fill="none"/>
  <polyline points="150,170 170,160 200,165 230,155 250,170" stroke="#ffff00" stroke-width="3" fill="none"/>
  <polyline points="140,210 170,200 200,205 230,195 260,210" stroke="#ffff00" stroke-width="3" fill="none"/>
  <polyline points="130,250 160,240 200,245 240,235 270,250" stroke="#ffff00" stroke-width="3" fill="none"/>
  
  <!-- Light bulbs -->
  <circle cx="170" cy="133" r="4" fill="#ffff66"/>
  <circle cx="200" cy="135" r="4" fill="#ff6666"/>
  <circle cx="230" cy="128" r="4" fill="#66ff66"/>
  
  <circle cx="160" cy="163" r="4" fill="#ff6666"/>
  <circle cx="200" cy="165" r="4" fill="#66ff66"/>
  <circle cx="240" cy="158" r="4" fill="#ffff66"/>
  
  <circle cx="155" cy="203" r="4" fill="#66ff66"/>
  <circle cx="200" cy="205" r="4" fill="#ffff66"/>
  <circle cx="245" cy="198" r="4" fill="#ff6666"/>
  
  <circle cx="150" cy="243" r="4" fill="#ffff66"/>
  <circle cx="200" cy="245" r="4" fill="#ff6666"/>
  <circle cx="250" cy="238" r="4" fill="#66ff66"/>
  
  <!-- Snow on branches -->
  <ellipse cx="170" cy="140" rx="15" ry="3" fill="#ffffff" opacity="0.8"/>
  <ellipse cx="230" cy="140" rx="15" ry="3" fill="#ffffff" opacity="0.8"/>
  <ellipse cx="160" cy="170" rx="18" ry="3" fill="#ffffff" opacity="0.8"/>
  <ellipse cx="240" cy="170" rx="18" ry="3" fill="#ffffff" opacity="0.8"/>
  <ellipse cx="150" cy="210" rx="20" ry="3" fill="#ffffff" opacity="0.8"/>
  <ellipse cx="250" cy="210" rx="20" ry="3" fill="#ffffff" opacity="0.8"/>
  <ellipse cx="140" cy="250" rx="22" ry="3" fill="#ffffff" opacity="0.8"/>
  <ellipse cx="260" cy="250" rx="22" ry="3" fill="#ffffff" opacity="0.8"/>
  
  <!-- Base/ground -->
  <ellipse cx="200" cy="360" rx="80" ry="15" fill="#ffffff" opacity="0.6"/>
</svg>